{
  "accessors": [
    {
      "bufferView": 2,
      "componentType": 5126,
      "count": 1753,
      "max": [
        0.11500000208616257,
        1.4587513208389282,
        0.18234671652317047
      ],
      "min": [
        -0.11500000208616257,
        0.0,
        -0.11500000208616257
      ],
      "type": "VEC3"
    },
    {
      "bufferView": 2,
      "byteOffset": 21036,
      "componentType": 5126,
      "count": 1753,
      "max": [
        1.0,
        1.0,
        1.0
      ],
      "min": [
        -1.0,
        -1.0,
        -1.0
      ],
      "type": "VEC3"
    },
    {
      "bufferView": 1,
      "componentType": 5126,
      "count": 1753,
      "max": [
        0.9972324967384338,
        0.9882180094718933
      ],
      "min": [
        0.02019069902598858,
        0.008691957220435143
      ],
      "type": "VEC2"
    },
    {
      "bufferView": 1,
      "byteOffset": 14024,
      "componentType": 5126,
      "count": 1753,
      "max": [
        0.9972324967384338,
        0.9882180094718933
      ],
      "min": [
        0.02019069902598858,
        0.008691957220435143
      ],
      "type": "VEC2"
    },
    {
      "bufferView": 1,
      "byteOffset": 28048,
      "componentType": 5126,
      "count": 1753,
      "max": [
        0.9972324967384338,
        0.9882180094718933
      ],
      "min": [
        0.02019069902598858,
        0.008691957220435143
      ],
      "type": "VEC2"
    },
    {
      "bufferView": 0,
      "componentType": 5125,
      "count": 7272,
      "type": "SCALAR"
    },
    {
      "bufferView": 2,
      "byteOffset": 42072,
      "componentType": 5126,
      "count": 158,
      "max": [
        0.032438360154628754,
        0.008676290512084961,
        0.023708991706371307
      ],
      "min": [
        0.0,
        -0.008676290512084961,
        -0.023708991706371307
      ],
      "type": "VEC3"
    },
    {
      "bufferView": 2,
      "byteOffset": 43968,
      "componentType": 5126,
      "count": 158,
      "max": [
        1.0,
        0.9238803386688232,
        1.0
      ],
      "min": [
        -1.0,
        -0.9238803386688232,
        -1.0
      ],
      "type": "VEC3"
    },
    {
      "bufferView": 1,
      "byteOffset": 42072,
      "componentType": 5126,
      "count": 158,
      "max": [
        0.8794326782226563,
        0.43025338649749756
      ],
      "min": [
        0.7944719195365906,
        0.015151780098676682
      ],
      "type": "VEC2"
    },
    {
      "bufferView": 1,
      "byteOffset": 43336,
      "componentType": 5126,
      "count": 158,
      "max": [
        0.8794326782226563,
        0.43025338649749756
      ],
      "min": [
        0.7944719195365906,
        0.015151780098676682
      ],
      "type": "VEC2"
    },
    {
      "bufferView": 1,
      "byteOffset": 44600,
      "componentType": 5126,
      "count": 158,
      "max": [
        0.8794326782226563,
        0.43025338649749756
      ],
      "min": [
        0.7944719195365906,
        0.015151780098676682
      ],
      "type": "VEC2"
    },
    {
      "bufferView": 0,
      "byteOffset": 29088,
      "componentType": 5125,
      "count": 312,
      "type": "SCALAR"
    },
    {
      "bufferView": 3,
      "componentType": 5126,
      "count": 81,
      "max": [
        4.166666507720947
      ],
      "min": [
        0.0416666679084301
      ],
      "type": "SCALAR"
    },
    {
      "bufferView": 4,
      "componentType": 5126,
      "count": 81,
      "max": [
        0.7071068286895752,
        0.0,
        -0.0,
        1.0
      ],
      "min": [
        0.0,
        0.0,
        -0.0,
        0.7071067094802856
      ],
      "type": "VEC4"
    }
  ],
  "animations": [
    {
      "channels": [
        {
          "sampler": 0,
          "target": {
            "node": 5,
            "path": "rotation"
          }
        }
      ],
      "name": "Action",
      "samplers": [
        {
          "input": 12,
          "interpolation": "LINEAR",
          "output": 13
        }
      ]
    }
  ],
  "asset": {
    "extras": {
      "author": "Stainless Reality (https://sketchfab.com/StainlessReality)",
      "license": "CC-BY-4.0 (http://creativecommons.org/licenses/by/4.0/)",
      "source": "https://sketchfab.com/3d-models/co2-gas-cylinder-6eb946fae3d84eaea2f1dd47647f4da8",
      "title": "CO2 Gas Cylinder"
    },
    "generator": "Sketchfab-12.65.0",
    "version": "2.0"
  },
  "bufferViews": [
    {
      "buffer": 0,
      "byteLength": 30336,
      "name": "floatBufferViews",
      "target": 34963
    },
    {
      "buffer": 0,
      "byteLength": 45864,
      "byteOffset": 30336,
      "byteStride": 8,
      "name": "floatBufferViews",
      "target": 34962
    },
    {
      "buffer": 0,
      "byteLength": 45864,
      "byteOffset": 76200,
      "byteStride": 12,
      "name": "floatBufferViews",
      "target": 34962
    },
    {
      "buffer": 0,
      "byteLength": 324,
      "byteOffset": 122064,
      "name": "floatBufferViews"
    },
    {
      "buffer": 0,
      "byteLength": 1296,
      "byteOffset": 122388,
      "byteStride": 16,
      "name": "floatBufferViews"
    }
  ],
  "buffers": [
    {
      "byteLength": 123684,
      "uri": "scene.bin"
    }
  ],
  "images": [
    {
      "uri": "textures/CO2cylinder_baseColor.png"
    },
    {
      "uri": "textures/CO2cylinder_metallicRoughness.png"
    }
  ],
  "materials": [
    {
      "doubleSided": true,
      "name": "CO2cylinder",
      "occlusionTexture": {
        "index": 1
      },
      "pbrMetallicRoughness": {
        "baseColorTexture": {
          "index": 0
        },
        "metallicRoughnessTexture": {
          "index": 1
        }
      }
    }
  ],
  "meshes": [
    {
      "name": "Object_0",
      "primitives": [
        {
          "attributes": {
            "NORMAL": 1,
            "POSITION": 0,
            "TEXCOORD_0": 2,
            "TEXCOORD_1": 3,
            "TEXCOORD_2": 4
          },
          "indices": 5,
          "material": 0,
          "mode": 4
        }
      ]
    },
    {
      "name": "Object_1",
      "primitives": [
        {
          "attributes": {
            "NORMAL": 7,
            "POSITION": 6,
            "TEXCOORD_0": 8,
            "TEXCOORD_1": 9,
            "TEXCOORD_2": 10
          },
          "indices": 11,
          "material": 0,
          "mode": 4
        }
      ]
    }
  ],
  "nodes": [
    {
      "children": [
        1
      ],
      "matrix": [
        1.0,
        0.0,
        0.0,
        0.0,
        0.0,
        2.220446049250313e-16,
        -1.0,
        0.0,
        0.0,
        1.0,
        2.220446049250313e-16,
        0.0,
        0.0,
        0.0,
        0.0,
        1.0
      ],
      "name": "Sketchfab_model"
    },
    {
      "children": [
        2
      ],
      "name": "root"
    },
    {
      "children": [
        3,
        5
      ],
      "matrix": [
        1.0,
        0.0,
        0.0,
        0.0,
        0.0,
        2.220446049250313e-16,
        1.0,
        0.0,
        0.0,
        -1.0,
        2.220446049250313e-16,
        0.0,
        0.0,
        0.0,
        0.0,
        1.0
      ],
      "name": "GLTF_SceneRootNode"
    },
    {
      "children": [
        4
      ],
      "name": "CO2cylinder_0"
    },
    {
      "mesh": 0,
      "name": "Object_4"
    },
    {
      "children": [
        6
      ],
      "name": "CO2cylinder.001_1",
      "translation": [
        0.050032541155815125,
        1.3633153438568115,
        0.09523527324199677
      ]
    },
    {
      "mesh": 1,
      "name": "Object_6"
    }
  ],
  "samplers": [
    {
      "magFilter": 9729,
      "minFilter": 9987,
      "wrapS": 10497,
      "wrapT": 10497
    }
  ],
  "scene": 0,
  "scenes": [
    {
      "name": "Sketchfab_Scene",
      "nodes": [
        0
      ]
    }
  ],
  "textures": [
    {
      "sampler": 0,
      "source": 0
    },
    {
      "sampler": 0,
      "source": 1
    }
  ]
}
