{
  "accessors": [
    {
      "bufferView": 2,
      "componentType": 5126,
      "count": 22296,
      "max": [
        0.9950184226036072,
        0.9950184226036072,
        0.13564401865005493
      ],
      "min": [
        -0.9950184226036072,
        -0.9950184226036072,
        -0.3688925504684448
      ],
      "type": "VEC3"
    },
    {
      "bufferView": 2,
      "byteOffset": 267552,
      "componentType": 5126,
      "count": 22296,
      "max": [
        1.0,
        1.0,
        1.0
      ],
      "min": [
        -1.0,
        -1.0,
        -1.0
      ],
      "type": "VEC3"
    },
    {
      "bufferView": 1,
      "componentType": 5126,
      "count": 22296,
      "max": [
        0.875,
        1.0
      ],
      "min": [
        0.0,
        0.0
      ],
      "type": "VEC2"
    },
    {
      "bufferView": 0,
      "componentType": 5125,
      "count": 101376,
      "type": "SCALAR"
    },
    {
      "bufferView": 2,
      "byteOffset": 535104,
      "componentType": 5126,
      "count": 512,
      "max": [
        0.6243334412574768,
        0.6243333220481873,
        5.538273574249815e-16
      ],
      "min": [
        -0.6243334412574768,
        -0.6243334412574768,
        -0.07152026891708374
      ],
      "type": "VEC3"
    },
    {
      "bufferView": 2,
      "byteOffset": 541248,
      "componentType": 5126,
      "count": 512,
      "max": [
        1.0,
        1.0,
        1.0
      ],
      "min": [
        -1.0,
        -1.0,
        -0.045565035194158554
      ],
      "type": "VEC3"
    },
    {
      "bufferView": 1,
      "byteOffset": 178368,
      "componentType": 5126,
      "count": 512,
      "max": [
        0.0,
        0.0
      ],
      "min": [
        0.0,
        0.0
      ],
      "type": "VEC2"
    },
    {
      "bufferView": 0,
      "byteOffset": 405504,
      "componentType": 5125,
      "count": 2304,
      "type": "SCALAR"
    },
    {
      "bufferView": 2,
      "byteOffset": 547392,
      "componentType": 5126,
      "count": 13902,
      "max": [
        0.878244936466217,
        2.6020686626434326,
        1.1340372562408447
      ],
      "min": [
        -1.0936561822891235,
        -2.2546136379241943,
        -1.1340372562408447
      ],
      "type": "VEC3"
    },
    {
      "bufferView": 2,
      "byteOffset": 714216,
      "componentType": 5126,
      "count": 13902,
      "max": [
        0.999957799911499,
        0.9999982118606567,
        1.0
      ],
      "min": [
        -0.9999611377716064,
        -0.999983549118042,
        -1.0
      ],
      "type": "VEC3"
    },
    {
      "bufferView": 1,
      "byteOffset": 182464,
      "componentType": 5126,
      "count": 13902,
      "max": [
        1.000000238418579,
        1.000000238418579
      ],
      "min": [
        0.0,
        0.0
      ],
      "type": "VEC2"
    },
    {
      "bufferView": 0,
      "byteOffset": 414720,
      "componentType": 5125,
      "count": 74112,
      "type": "SCALAR"
    },
    {
      "bufferView": 2,
      "byteOffset": 881040,
      "componentType": 5126,
      "count": 3240,
      "max": [
        0.5141550302505493,
        2.120849132537842,
        0.8893641829490662
      ],
      "min": [
        -0.7120405435562134,
        -1.7179538011550903,
        -0.8893641829490662
      ],
      "type": "VEC3"
    },
    {
      "bufferView": 2,
      "byteOffset": 919920,
      "componentType": 5126,
      "count": 3240,
      "max": [
        0.999998927116394,
        0.9999997615814209,
        1.0
      ],
      "min": [
        -0.9996393918991089,
        -0.9999135732650757,
        -1.0
      ],
      "type": "VEC3"
    },
    {
      "bufferView": 1,
      "byteOffset": 293680,
      "componentType": 5126,
      "count": 3240,
      "max": [
        1.0000001192092896,
        1.0000001192092896
      ],
      "min": [
        0.0,
        0.0
      ],
      "type": "VEC2"
    },
    {
      "bufferView": 0,
      "byteOffset": 711168,
      "componentType": 5125,
      "count": 16512,
      "type": "SCALAR"
    }
  ],
  "asset": {
    "extras": {
      "author": "the_86_guy (https://sketchfab.com/the_86_guy)",
      "license": "CC-BY-4.0 (http://creativecommons.org/licenses/by/4.0/)",
      "source": "https://sketchfab.com/3d-models/brake-disk-vented-steel-rotor-afcbf63c2213414e93f0a4ffb5bb06f5",
      "title": "Brake Disk Vented Steel Rotor"
    },
    "generator": "Sketchfab-12.66.0",
    "version": "2.0"
  },
  "bufferViews": [
    {
      "buffer": 0,
      "byteLength": 777216,
      "name": "floatBufferViews",
      "target": 34963
    },
    {
      "buffer": 0,
      "byteLength": 319600,
      "byteOffset": 777216,
      "byteStride": 8,
      "name": "floatBufferViews",
      "target": 34962
    },
    {
      "buffer": 0,
      "byteLength": 958800,
      "byteOffset": 1096816,
      "byteStride": 12,
      "name": "floatBufferViews",
      "target": 34962
    }
  ],
  "buffers": [
    {
      "byteLength": 2055616,
      "uri": "scene.bin"
    }
  ],
  "materials": [
    {
      "doubleSided": true,
      "name": "Disk",
      "pbrMetallicRoughness": {
        "baseColorFactor": [
          0.8,
          0.8,
          0.8,
          1.0
        ],
        "roughnessFactor": 0.5544373103745994
      }
    },
    {
      "doubleSided": true,
      "name": "Disk_2",
      "pbrMetallicRoughness": {
        "baseColorFactor": [
          0.0,
          0.0,
          0.0,
          1.0
        ],
        "metallicFactor": 0.0,
        "roughnessFactor": 0.0
      }
    },
    {
      "doubleSided": true,
      "name": "Caliper",
      "pbrMetallicRoughness": {
        "baseColorFactor": [
          1.0,
          0.0,
          0.0,
          1.0
        ],
        "metallicFactor": 0.0,
        "roughnessFactor": 0.0
      }
    },
    {
      "doubleSided": true,
      "name": "Pads",
      "pbrMetallicRoughness": {
        "baseColorFactor": [
          0.0,
          0.0,
          0.0,
          1.0
        ],
        "metallicFactor": 0.0,
        "roughnessFactor": 0.0
      }
    }
  ],
  "meshes": [
    {
      "name": "Disk_Disk_0",
      "primitives": [
        {
          "attributes": {
            "NORMAL": 1,
            "POSITION": 0,
            "TEXCOORD_0": 2
          },
          "indices": 3,
          "material": 0,
          "mode": 4
        }
      ]
    },
    {
      "name": "Disk_Disk 2_0",
      "primitives": [
        {
          "attributes": {
            "NORMAL": 5,
            "POSITION": 4,
            "TEXCOORD_0": 6
          },
          "indices": 7,
          "material": 1,
          "mode": 4
        }
      ]
    },
    {
      "name": "Caliper_Caliper_0",
      "primitives": [
        {
          "attributes": {
            "NORMAL": 9,
            "POSITION": 8,
            "TEXCOORD_0": 10
          },
          "indices": 11,
          "material": 2,
          "mode": 4
        }
      ]
    },
    {
      "name": "Caliper_Pads_0",
      "primitives": [
        {
          "attributes": {
            "NORMAL": 13,
            "POSITION": 12,
            "TEXCOORD_0": 14
          },
          "indices": 15,
          "material": 3,
          "mode": 4
        }
      ]
    }
  ],
  "nodes": [
    {
      "children": [
        1
      ],
      "matrix": [
        1.0,
        0.0,
        0.0,
        0.0,
        0.0,
        2.220446049250313e-16,
        -1.0,
        0.0,
        0.0,
        1.0,
        2.220446049250313e-16,
        0.0,
        0.0,
        0.0,
        0.0,
        1.0
      ],
      "name": "Sketchfab_model"
    },
    {
      "children": [
        2
      ],
      "matrix": [
        1.0,
        0.0,
        0.0,
        0.0,
        0.0,
        0.0,
        1.0,
        0.0,
        0.0,
        -1.0,
        0.0,
        0.0,
        0.0,
        0.0,
        0.0,
        1.0
      ],
      "name": "b45da6ce0c9646fbacec148fe63e4539.fbx"
    },
    {
      "children": [
        3,
        6
      ],
      "name": "RootNode"
    },
    {
      "children": [
        4,
        5
      ],
      "matrix": [
        146.3785858154297,
        0.0,
        0.0,
        0.0,
        0.0,
        146.37858581542955,
        6.398411201441835e-06,
        0.0,
        0.0,
        -6.398411201441835e-06,
        146.37858581542955,
        0.0,
        0.0,
        0.0,
        27.589590072631836,
        1.0
      ],
      "name": "Disk"
    },
    {
      "mesh": 0,
      "name": "Disk_Disk_0"
    },
    {
      "mesh": 1,
      "name": "Disk_Disk 2_0"
    },
    {
      "children": [
        7,
        8
      ],
      "matrix": [
        38.895423889160156,
        0.0,
        0.0,
        0.0,
        0.0,
        38.89542388916012,
        1.7001731143806464e-06,
        0.0,
        0.0,
        -1.7001731143806464e-06,
        38.89542388916012,
        0.0,
        140.91297912597656,
        0.0,
        0.0,
        1.0
      ],
      "name": "Caliper"
    },
    {
      "mesh": 2,
      "name": "Caliper_Caliper_0"
    },
    {
      "mesh": 3,
      "name": "Caliper_Pads_0"
    }
  ],
  "scene": 0,
  "scenes": [
    {
      "name": "Sketchfab_Scene",
      "nodes": [
        0
      ]
    }
  ]
}
