{"accessors" : [{"bufferView" : 0, "byteOffset" : 0, "componentType" : 5123, "count" : 10776, "type" : "SCALAR", "max" : [8694], "min" : [0]}, {"bufferView" : 1, "byteOffset" : 0, "componentType" : 5126, "count" : 8695, "type" : "VEC3", "max" : [3.629810094833374, 3.0646700859069824, 0.8574572205543518], "min" : [-3.816420078277588, 0.650409996509552, -0.8572887778282166], "name" : "POSITION"}, {"bufferView" : 1, "byteOffset" : 12, "componentType" : 5126, "count" : 8695, "type" : "VEC3", "max" : [0.9992245435714722, 0.9999899864196777, 0.9968026280403137], "min" : [-0.9992406368255615, -0.9998499155044556, -0.9987921714782715], "name" : "NORMAL"}], "asset" : {"generator" : "Aspose.3D 22.3", "version" : "2.0"}, "buffers" : [{"uri" : "data:application/octet-stream;base64,", "byteLength" : 280184}], "bufferViews" : [{"buffer" : 0, "byteOffset" : 0, "byteLength" : 21552, "target" : 34963}, {"buffer" : 0, "byteOffset" : 21556, "byteLength" : 258624, "byteStride" : 24, "target" : 34962}], "meshes" : [{"primitives" : [{"attributes" : {"POSITION" : 1, "NORMAL" : 2}, "indices" : 0, "mode" : 4}], "name" : ""}], "nodes" : [{"mesh" : 0, "name" : ""}], "scene" : 0, "scenes" : [{"nodes" : [0]}]}