{"accessors" : [{"bufferView" : 0, "byteOffset" : 0, "componentType" : 5123, "count" : 46776, "type" : "SCALAR", "max" : [37803], "min" : [0]}, {"bufferView" : 1, "byteOffset" : 0, "componentType" : 5126, "count" : 37804, "type" : "VEC3", "max" : [4.0520830154418945, 3.2034506797790527, 1.9547309875488281], "min" : [-4.092002868652344, -1.167207956314087, -1.954736351966858], "name" : "POSITION"}, {"bufferView" : 1, "byteOffset" : 12, "componentType" : 5126, "count" : 37804, "type" : "VEC2", "max" : [0.9039999842643738, 0.7699999809265137], "min" : [0.09000000357627869, 0.22499999403953552], "name" : "TEXCOORD_0"}, {"bufferView" : 1, "byteOffset" : 20, "componentType" : 5126, "count" : 37804, "type" : "VEC3", "max" : [1.0000044107437134, 1.0000044107437134, 0.9999565482139587], "min" : [-1.0000038146972656, -1.0000044107437134, -0.9999567270278931], "name" : "NORMAL"}], "asset" : {"generator" : "Aspose.3D 22.3", "version" : "2.0"}, "buffers" : [{"uri" : "data:application/octet-stream;base64,", "byteLength" : 1590392}], "bufferViews" : [{"buffer" : 0, "byteOffset" : 0, "byteLength" : 93552, "target" : 34963}, {"buffer" : 0, "byteOffset" : 93556, "byteLength" : 1496832, "byteStride" : 32, "target" : 34962}], "meshes" : [{"primitives" : [{"attributes" : {"POSITION" : 1, "TEXCOORD_0" : 2, "NORMAL" : 3}, "indices" : 0, "mode" : 4}], "name" : ""}], "nodes" : [{"mesh" : 0, "name" : ""}], "scene" : 0, "scenes" : [{"nodes" : [0]}]}